<svg xmlns="http://www.w3.org/2000/svg" width="200.819" height="30.573" viewBox="0 0 200.819 30.573">
  <g id="Group_63" data-name="Group 63" transform="translate(-1682.09 -4807.213)">
    <text id="トピック" transform="translate(1742 4831)" fill="#464646" font-size="20" font-family="SourceHanSansCN-Medium, Source Han Sans CN" font-weight="500"><tspan x="0" y="0">トピック</tspan></text>
    <path id="Intersection_1" data-name="Intersection 1" d="M517.209,88.286l3.2-4.573Zm-4,0L520.41,78Zm-4,0,11.2-16Zm-4,0,15.2-21.715Zm-4,0,19.2-27.43Zm-4,0,21-30Zm-4,0,21-30Zm-4,0,21-30Zm-4,0,21-30Zm-4,0,21-30Zm-4,0,21-30Zm-4,0,21-30Zm-4,0,21-30Zm-4,0,21-30Zm-4,0,21-30Zm-4,0,21-30Zm-4,0,21-30Zm-4,0,21-30Zm-4,0,21-30Zm-4,0,21-30Zm-4,0,21-30Zm-4,0,21-30Zm-4,0,21-30Zm-4,0,21-30Zm-4,0,21-30Zm-4,0,21-30Zm-4,0,21-30Zm-4,0,21-30Zm-4,0,21-30Zm-4,0,21-30Zm-4,0,21-30Zm-4,0,21-30Zm-4,0,21-30Zm-4,0,21-30Zm-4,0,21-30Zm-4,0,21-30Zm-4,0,21-30Zm-4,0,21-30Zm-4,0,21-30Zm-4,0,21-30Zm-4,0,21-30Zm-4,0,21-30Zm-4,0,21-30Zm-4,0,21-30Zm-4,0,21-30Zm-4,0,21-30Zm-4,0,21-30Zm-4,0,21-30Zm-4,0,21-30Zm-4,0,21-30Zm-.8-4.573,17.8-25.427Zm0-5.714,13.8-19.713Zm0-5.715,9.8-14Zm0-5.714,5.8-8.284Zm0-5.715,1.8-2.569Z" transform="translate(1362.09 4749.213)" fill="none" stroke="#707070" stroke-width="1" opacity="0.13"/>
  </g>
</svg>
