<svg xmlns="http://www.w3.org/2000/svg" width="18" height="18" viewBox="0 0 18 18">
  <g id="vd_eventlist_pc" transform="translate(-48 -913)">
    <g id="開始日_デフォルト当日_" data-name="開始日（デフォルト当日）" transform="translate(40 905)">
      <g id="i_cal_color" transform="translate(8 8)">
        <path id="Fill-1" d="M3.5,10h3V7h-3Z" fill="#b82933" fill-rule="evenodd"/>
        <path id="Fill-2" d="M11.5,10h3V7h-3Z" fill="#b82933" fill-rule="evenodd"/>
        <path id="Fill-3" d="M7.5,10h3V7h-3Z" fill="#b82933" fill-rule="evenodd"/>
        <path id="Fill-4" d="M3.5,14h3V11h-3Z" fill="#b82933" fill-rule="evenodd"/>
        <path id="Fill-5" d="M7.5,14h3V11h-3Z" fill="#b82933" fill-rule="evenodd"/>
        <path id="Fill-6" d="M16,15.5a.5.5,0,0,1-.5.5H2.5a.5.5,0,0,1-.5-.5V5H16ZM16,0H13.5V2h-1V0h-7V2h-1V0H2A2,2,0,0,0,0,2V16a2,2,0,0,0,2,2H16a2,2,0,0,0,2-2V2A2,2,0,0,0,16,0Z" fill="#b82933" fill-rule="evenodd"/>
      </g>
    </g>
  </g>
</svg>
